<svg xmlns="http://www.w3.org/2000/svg" version="1.1" xmlns:xlink="http://www.w3.org/1999/xlink" xmlns:svgjs="http://svgjs.dev/svgjs" width="1440" height="560" preserveAspectRatio="none" viewBox="0 0 1440 560"><g mask="url(&quot;#SvgjsMask1136&quot;)" fill="none"><rect width="1440" height="560" x="0" y="0" fill="rgba(23, 229, 57, 0.06)"></rect><path d="M 0,159 C 57.6,148.6 172.8,84 288,107 C 403.2,130 460.8,270.6 576,274 C 691.2,277.4 748.8,142.6 864,124 C 979.2,105.4 1036.8,197.8 1152,181 C 1267.2,164.2 1382.4,68.2 1440,40L1440 560L0 560z" fill="rgba(14, 237, 47, 0.12)"></path><path d="M 0,305 C 96,336.4 288,442.2 480,462 C 672,481.8 768,405.6 960,404 C 1152,402.4 1344,444 1440,454L1440 560L0 560z" fill="rgba(17, 191, 46, 0.33)"></path></g><defs><mask id="SvgjsMask1136"><rect width="1440" height="560" fill="#ffffff"></rect></mask></defs></svg>